<?xml version="1.0" encoding="UTF-8" standalone="no"?>
<svg xmlns:rdf="http://www.w3.org/1999/02/22-rdf-syntax-ns#" xmlns="http://www.w3.org/2000/svg" height="82.7" width="225" version="1.0" xmlns:cc="http://creativecommons.org/ns#" xmlns:dc="http://purl.org/dc/elements/1.1/">
<path d="m40.6 7.56c1.54 6.11 3.2 14.5 5.66 20.3 6.01 1.5 3.65-9.45 10-8.92 6.65-2.73 13.9 1.3 17.8 6.77 3.3 4.98 2.05 11.1 2.32 16.7 0.0141 9.67-3.02 20.6-12 25.6-6.73 4.16-14.5 6.1-22.1 8.07-5.46 0.52-13.4-0.986-15-5.16-1.19-3.59-3.39-14.4-8.03-11.8-2.14-1.03-6.3 9.16-3.39 13.4m15.3-64.7c1.81 9.43 0.203 7.62 4.43 16.4 2.37 8.75 10.8 11 11.2 15.8 3.2 8.96-7.56 18.9-12.2 16 0 0-3.72-5.08-7.17-5.45-3.69-0.393-8.37-0.901-10.7 2.52-6.22-1.32-16 14.4-6.62 23.1 2.04-0.802 3.97-2.51 5.78-3.72" stroke="#000" stroke-linecap="round" stroke-width="2.5" fill="none"/>
<path d="m40.6 7.56c0 0.91-2.2 1.65-4.8 1.65-2.7 0-4.9-0.74-4.9-1.65s2.2-1.65 4.9-1.65c2.6 0 4.8 0.74 4.8 1.65z" stroke="#000" stroke-width="1.8" fill="none"/>
<path d="m65.5 45.2c2.39-1.66 4.04-1.54 7.34-1.41" stroke="#000" stroke-linecap="round" stroke-width="2" fill="none"/>
<path d="m100 33.2c-12.6 0-25.9 2.61-35.3 12.3m0 0c1.24-2.27 1.54-5.06 1.91-7.51" stroke="#000" stroke-linecap="round" stroke-width="2" fill="none"/>
<g transform="translate(.421 .25)">
<path d="m111 30.5c-0.26 0.000008-0.542 0.0208-0.844 0.0625-0.302 0.0313-0.599 0.0677-0.891 0.109-0.208 0.0313-0.411 0.0573-0.609 0.0781-0.188 0.0208-0.359 0.0365-0.516 0.0469-0.0729 0.229-0.146 0.432-0.219 0.609-0.0729 0.177-0.151 0.349-0.234 0.516-0.0833 0.177-0.161 0.359-0.234 0.547-0.0625 0.177-0.125 0.37-0.188 0.578-0.104 0.167-0.193 0.323-0.266 0.469-0.0625 0.135-0.115 0.292-0.156 0.469-0.125 0.156-0.219 0.323-0.281 0.5-0.0625 0.167-0.109 0.313-0.141 0.438l-0.0625 0.188c-0.0625 0.0625-0.099 0.115-0.109 0.156-0.0104 0.0312-0.0365 0.0625-0.0781 0.0938-0.0104 0.115-0.0469 0.229-0.109 0.344-0.0208 0.0521-0.0365 0.104-0.0469 0.156-0.0104 0.0417-0.0156 0.0729-0.0156 0.0938 0 0.104-0.026 0.172-0.0781 0.203 0.0104 0.0521 0.0104 0.109 0 0.172-0.0104 0.0521-0.0208 0.104-0.0313 0.156-0.0313 0.125-0.0417 0.224-0.0313 0.297 0.0312 0.0417 0.0573 0.0781 0.0781 0.109 0.0313 0.0312 0.0521 0.0729 0.0625 0.125 0.0625 0.0417 0.109 0.0677 0.141 0.0781 0.0417 0.0312 0.104 0.0677 0.188 0.109l0.141 0.156c0.0521 0.302 0.005 0.542-0.141 0.719-0.156 0.198-0.422 0.297-0.797 0.297h-0.188c-0.0521-0.0521-0.0833-0.0938-0.0937-0.125-0.0833-0.0312-0.151-0.0573-0.203-0.0781-0.0521-0.0208-0.099-0.0625-0.141-0.125-0.135-0.0625-0.245-0.115-0.328-0.156l-0.141-0.0781v-0.188c-0.0729-0.0938-0.13-0.198-0.172-0.312-0.0313-0.115-0.0573-0.229-0.0781-0.344-0.0208-0.0938-0.0469-0.182-0.0781-0.266-0.0208-0.0833-0.0521-0.156-0.0937-0.219-0.0208-0.604 0.0365-1.11 0.172-1.53 0.135-0.417 0.276-0.818 0.422-1.2 0.0833-0.208 0.167-0.417 0.25-0.625 0.0833-0.219 0.156-0.443 0.219-0.672l0.141-0.156c0.0729-0.167 0.13-0.302 0.172-0.406 0.0521-0.115 0.104-0.229 0.156-0.344 0.0312-0.0729 0.0573-0.141 0.0781-0.203 0.0313-0.0729 0.0573-0.135 0.0781-0.188-0.0625 0.000007-0.12 0.0052-0.172 0.0156-0.0521 0.000007-0.104 0.0052-0.156 0.0156-0.0625 0.0104-0.12 0.0208-0.172 0.0312-0.0521 0.000007-0.104 0.000007-0.156 0-0.0729 0.000007-0.125-0.0052-0.156-0.0156-0.115 0.0521-0.24 0.0781-0.375 0.0781h-0.156c-0.0313 0.000007-0.0625 0.000007-0.0937 0-0.0208-0.0104-0.0417-0.0156-0.0625-0.0156-0.104 0.000007-0.188 0.0156-0.25 0.0469-0.125 0.000007-0.245 0.000007-0.359 0h-0.156c-0.0208 0.000007-0.0469 0.0052-0.0781 0.0156-0.0313 0.000007-0.0573 0.000007-0.0781 0-0.0729 0.000007-0.151-0.0052-0.234-0.0156-0.0833-0.0208-0.172-0.0573-0.266-0.109-0.125-0.167-0.208-0.255-0.25-0.266l-0.141-0.188c-0.0104-0.0625-0.026-0.12-0.0469-0.172-0.0208-0.0625-0.0417-0.13-0.0625-0.203-0.0417-0.104-0.0833-0.214-0.125-0.328-0.0313-0.125-0.0469-0.271-0.0469-0.438 0.0104-0.0833 0.0313-0.146 0.0625-0.188 0.0313-0.0417 0.0573-0.0781 0.0781-0.109l0.0469-0.234 0.203 0.0156h0.438c0.333 0.000009 0.672-0.0104 1.02-0.0312 0.344-0.0312 0.698-0.0625 1.06-0.0938l0.625-0.0625c0.219-0.0208 0.443-0.0417 0.672-0.0625 0.0417-0.0937 0.0833-0.182 0.125-0.266l0.156-0.0781c0.188-0.0104 0.318 0.0156 0.391 0.0781 0.0833 0.0521 0.151 0.104 0.203 0.156 0.229-0.0208 0.458-0.0417 0.688-0.0625 0.24-0.0312 0.479-0.0677 0.719-0.109 0.354-0.0521 0.708-0.099 1.06-0.141 0.365-0.0417 0.714-0.0625 1.05-0.0625 0.146 0.00001 0.286 0.0052 0.422 0.0156 0.135 0.0104 0.26 0.026 0.375 0.0469l0.156 0.109c0.0312 0.0625 0.0729 0.12 0.125 0.172 0.0625 0.0521 0.125 0.104 0.188 0.156 0.125 0.115 0.25 0.25 0.375 0.406s0.172 0.385 0.141 0.688c-0.0833 0.125-0.146 0.198-0.188 0.219l-0.141 0.188-0.156-0.0156c-0.0625 0.000008-0.12 0.0104-0.172 0.0312-0.0521 0.0104-0.104 0.026-0.156 0.0469-0.0417 0.0208-0.0833 0.0417-0.125 0.0625-0.0417 0.0104-0.0885 0.0208-0.141 0.0312-0.0938 0.000008-0.172 0.000008-0.234 0-0.0521-0.0104-0.109-0.0156-0.172-0.0156"/>
<path d="m118 36.5c0.0208 0.271-0.0104 0.495-0.0937 0.672s-0.198 0.328-0.344 0.453-0.313 0.224-0.5 0.297c-0.188 0.0729-0.37 0.141-0.547 0.203-0.0833-0.0521-0.167-0.104-0.25-0.156-0.0729-0.0625-0.161-0.109-0.266-0.141-0.135-0.25-0.266-0.469-0.391-0.656-0.125-0.198-0.182-0.422-0.172-0.672-0.00001-0.0104 0.005-0.0677 0.0156-0.172 0.0208-0.104 0.0417-0.219 0.0625-0.344 0.0313-0.125 0.0521-0.24 0.0625-0.344 0.0208-0.115 0.0313-0.177 0.0313-0.188-0.24 0.0208-0.49 0.0729-0.75 0.156-0.26 0.0833-0.516 0.182-0.766 0.297-0.24 0.115-0.469 0.229-0.688 0.344-0.208 0.115-0.38 0.214-0.516 0.297 0 0.0312-0.0208 0.109-0.0625 0.234-0.0417 0.115-0.0937 0.24-0.156 0.375-0.0625 0.125-0.13 0.24-0.203 0.344-0.0729 0.104-0.146 0.156-0.219 0.156 0.0104 0.0312 0.026 0.0625 0.0469 0.0938 0.0208 0.0312 0.0208 0.0729 0 0.125-0.146 0.0417-0.276 0.0938-0.391 0.156-0.115 0.0729-0.234 0.13-0.359 0.172-0.125 0.0521-0.26 0.0781-0.406 0.0781s-0.318-0.0521-0.516-0.156c0-0.0625-0.026-0.115-0.0781-0.156-0.0521-0.0521-0.109-0.0938-0.172-0.125-0.0521-0.0417-0.099-0.0729-0.141-0.0938-0.0417-0.0312-0.0625-0.0573-0.0625-0.0781-0.0521 0.0104-0.0729-0.026-0.0625-0.109 0.0104-0.0833 0.0521-0.104 0.125-0.0625-0.115-0.146-0.188-0.271-0.219-0.375-0.0208-0.115-0.0781-0.255-0.172-0.422 0.0208-0.0208 0.0417-0.0573 0.0625-0.109 0.0104-0.0521 0.0208-0.099 0.0313-0.141 0.0104-0.0417 0.026-0.0729 0.0469-0.0938 0.0208-0.0208 0.0469-0.0156 0.0781 0.0156-0.0208-0.0938-0.0208-0.172 0-0.234 0.0208-0.0625 0.0417-0.12 0.0625-0.172 0.0208-0.0521 0.0365-0.104 0.0469-0.156 0.0104-0.0521-0.005-0.109-0.0469-0.172 0.167-0.229 0.276-0.474 0.328-0.734 0.0521-0.271 0.0833-0.516 0.0937-0.734 0.0729-0.0729 0.135-0.177 0.188-0.312 0.0625-0.135 0.109-0.271 0.141-0.406 0.0313-0.146 0.0417-0.281 0.0313-0.406 0-0.135-0.0156-0.245-0.0469-0.328 0.0104-0.0521 0.0677-0.0677 0.172-0.0469 0.0625-0.344 0.104-0.729 0.125-1.16 0.0313-0.437 0.0781-0.849 0.141-1.23 0.0625-0.396 0.167-0.74 0.312-1.03 0.146-0.302 0.38-0.5 0.703-0.594 0.0625 0.219 0.141 0.411 0.234 0.578 0.104 0.167 0.214 0.328 0.328 0.484 0.125 0.146 0.245 0.297 0.359 0.453 0.125 0.156 0.24 0.333 0.344 0.531-0.0104 0.198-0.0313 0.427-0.0625 0.688-0.0313 0.26-0.0729 0.526-0.125 0.797-0.0417 0.271-0.0885 0.531-0.141 0.781-0.0417 0.25-0.0833 0.464-0.125 0.641 0.0104 0.0521 0.0365 0.0833 0.0781 0.0938 0.0521 0.0104 0.0625 0.0573 0.0313 0.141 0.25-0.0625 0.51-0.12 0.781-0.172 0.271-0.0521 0.542-0.109 0.812-0.172 0.271-0.0625 0.531-0.13 0.781-0.203 0.26-0.0833 0.5-0.182 0.719-0.297 0.0521-0.406 0.12-0.812 0.203-1.22 0.0833-0.406 0.0937-0.823 0.0313-1.25 0.0521-0.0417 0.0937-0.0937 0.125-0.156 0.0312-0.0625 0.0833-0.104 0.156-0.125-0.0521-0.198-0.0729-0.406-0.0625-0.625s0.0469-0.427 0.109-0.625c0.0729-0.198 0.172-0.365 0.297-0.5 0.135-0.146 0.297-0.24 0.484-0.281 0.115 0.167 0.214 0.349 0.297 0.547 0.0833 0.188 0.167 0.38 0.25 0.578 0.0937 0.188 0.187 0.37 0.281 0.547 0.104 0.167 0.234 0.313 0.391 0.438 0.0312 0.302 0.0521 0.615 0.0625 0.938 0.0208 0.323 0.0365 0.651 0.0469 0.984-0.0833 0.396-0.177 0.781-0.281 1.16-0.0938 0.365-0.161 0.755-0.203 1.17-0.0729 0.0833-0.13 0.177-0.172 0.281-0.0417 0.104-0.0833 0.214-0.125 0.328-0.0417 0.104-0.0885 0.208-0.141 0.312-0.0521 0.0938-0.115 0.177-0.188 0.25 0.0417 0.125 0.0469 0.245 0.0156 0.359-0.0208 0.104 0.0104 0.234 0.0937 0.391"/>
<path d="m128 29.2c0.0104 0.0729 0.0104 0.13 0 0.172-0.00001 0.0313-0.005 0.0625-0.0156 0.0938-0.00001 0.0313-0.00001 0.0677 0 0.109-0.00001 0.0313 0.0104 0.0833 0.0313 0.156-0.219 0.354-0.474 0.599-0.766 0.734-0.281 0.125-0.589 0.219-0.922 0.281-0.333 0.0521-0.677 0.109-1.03 0.172-0.344 0.0625-0.688 0.198-1.03 0.406-0.135-0.0521-0.26-0.0521-0.375 0-0.104 0.0521-0.26 0.0677-0.469 0.0469-0.0625 0.0625-0.141 0.109-0.234 0.141-0.0938 0.0208-0.188 0.0469-0.281 0.0781 0.0417 0.0938 0.0573 0.193 0.0469 0.297 0 0.0938 0.0156 0.172 0.0469 0.234 0.365 0.0313 0.766 0.026 1.2-0.0156 0.448-0.0417 0.885-0.0677 1.31-0.0781 0.0104 0.0521 0.005 0.0886-0.0156 0.109-0.0208 0.0104-0.026 0.0365-0.0156 0.0781 0.0729 0.0521 0.146 0.12 0.219 0.203l0.219 0.219c0.0729 0.0729 0.146 0.135 0.219 0.188 0.0833 0.0417 0.177 0.0573 0.281 0.0469 0.0417 0.0833 0.0677 0.177 0.0781 0.281 0.0208 0.0938 0.0104 0.193-0.0313 0.297-0.167 0.115-0.333 0.234-0.5 0.359-0.167 0.115-0.344 0.219-0.531 0.312-0.177 0.0938-0.37 0.172-0.578 0.234-0.198 0.0521-0.422 0.0729-0.672 0.0625-0.0521 0.000004-0.0938 0.000004-0.125 0-0.0208 0.000004-0.0521-0.0156-0.0937-0.0469-0.0833 0.0521-0.203 0.0677-0.359 0.0469-0.146-0.0208-0.26-0.0052-0.344 0.0469-0.115-0.0521-0.255-0.0729-0.422-0.0625-0.156 0.000004-0.297-0.0208-0.422-0.0625-0.167 0.219-0.318 0.453-0.453 0.703s-0.255 0.516-0.359 0.797c0.354 0.0521 0.646 0.0729 0.875 0.0625 0.24-0.0104 0.464-0.026 0.672-0.0469 0.208-0.0312 0.422-0.0573 0.641-0.0781 0.219-0.0312 0.495-0.0417 0.828-0.0312 0.208-0.115 0.453-0.187 0.734-0.219 0.292-0.0417 0.557-0.104 0.797-0.188 0.0833 0.0312 0.156 0.0885 0.219 0.172 0.0625 0.0729 0.12 0.146 0.172 0.219 0.0625 0.0625 0.125 0.12 0.188 0.172 0.0625 0.0521 0.141 0.0729 0.234 0.0625 0.0417 0.0417 0.0677 0.0938 0.0781 0.156 0.0208 0.0521 0.0365 0.104 0.0469 0.156 0.0104 0.0521 0.026 0.099 0.0469 0.141 0.0312 0.0312 0.0781 0.0417 0.141 0.0312-0.156 0.344-0.339 0.609-0.547 0.797-0.198 0.177-0.427 0.312-0.688 0.406-0.26 0.0938-0.552 0.167-0.875 0.219-0.312 0.0521-0.661 0.115-1.05 0.188-0.0938 0.0208-0.172 0.0156-0.234-0.0156-0.0625-0.0208-0.135-0.0312-0.219-0.0312-0.24 0.0521-0.526 0.099-0.859 0.141-0.333 0.0417-0.672 0.0573-1.02 0.0469-0.344-0.0104-0.672-0.0573-0.984-0.141-0.312-0.0729-0.568-0.208-0.766-0.406-0.0833-0.0729-0.141-0.156-0.172-0.25-0.0208-0.104-0.0885-0.182-0.203-0.234-0.0104-0.135-0.0313-0.286-0.0625-0.453-0.0313-0.167-0.0625-0.339-0.0937-0.516-0.0313-0.187-0.0573-0.37-0.0781-0.547-0.0104-0.177 0-0.339 0.0313-0.484 0.0313-0.156 0.0937-0.297 0.188-0.422 0.104-0.125 0.141-0.26 0.109-0.406 0.0521-0.0104 0.0833-0.0364 0.0937-0.0781 0.0104-0.0521 0.0521-0.0729 0.125-0.0625 0.0625-0.187 0.13-0.365 0.203-0.531 0.0729-0.167 0.146-0.328 0.219-0.484 0.0833-0.156 0.161-0.312 0.234-0.469 0.0833-0.167 0.161-0.349 0.234-0.547-0.146-0.135-0.255-0.281-0.328-0.438-0.0625-0.167-0.109-0.328-0.141-0.484-0.0313-0.167-0.0573-0.333-0.0781-0.5-0.0208-0.177-0.0573-0.354-0.109-0.531 0.104-0.156 0.229-0.281 0.375-0.375 0.156-0.104 0.323-0.187 0.5-0.25 0.177-0.0625 0.37-0.115 0.578-0.156 0.208-0.0417 0.427-0.0885 0.656-0.141 0.417-0.135 0.786-0.24 1.11-0.312 0.333-0.0729 0.656-0.13 0.969-0.172 0.323-0.0521 0.656-0.099 1-0.141 0.344-0.0417 0.734-0.104 1.17-0.188 0.0937 0.0938 0.182 0.141 0.266 0.141 0.0417-0.0937 0.0885-0.12 0.141-0.0781 0.0625 0.0313 0.0885 0.000009 0.0781-0.0938 0.104 0.177 0.234 0.328 0.391 0.453 0.167 0.115 0.349 0.214 0.547 0.297"/>
<path d="m145 35.2c-0.25 0.448-0.578 0.797-0.984 1.05-0.406 0.24-0.854 0.443-1.34 0.609-0.49 0.156-1.01 0.297-1.55 0.422-0.531 0.125-1.05 0.286-1.55 0.484-0.146 0-0.276 0.0052-0.391 0.0156-0.104 0.0104-0.208 0.026-0.312 0.0469-0.0937 0.0104-0.188 0.026-0.281 0.0469-0.0937 0.0104-0.198 0.0208-0.312 0.0312-0.0417-0.0104-0.0677 0-0.0781 0.0312-0.0104 0.0208-0.026 0.0417-0.0469 0.0625-0.177 0.0312-0.339 0.0469-0.484 0.0469h-0.344c-0.125 0-0.255 0.0156-0.391 0.0469-0.125 0.0417-0.24 0.0573-0.344 0.0469-0.781-0.0417-1.4-0.318-1.84-0.828-0.438-0.521-0.682-1.24-0.734-2.16 0.0104-0.0521 0-0.0833-0.0313-0.0938-0.0208-0.0104-0.0417-0.026-0.0625-0.0469 0-0.104 0.0104-0.193 0.0313-0.266 0.0313-0.0729 0.0365-0.167 0.0156-0.281 0.271-0.573 0.578-1.1 0.922-1.59 0.344-0.5 0.755-0.937 1.23-1.31 0.0729-0.0625 0.135-0.125 0.188-0.188 0.0521-0.0625 0.099-0.125 0.141-0.188 0.0521-0.0625 0.109-0.115 0.172-0.156 0.0625-0.0521 0.141-0.0885 0.234-0.109 0.219-0.25 0.479-0.479 0.781-0.688 0.302-0.208 0.62-0.406 0.953-0.594 0.333-0.198 0.661-0.391 0.984-0.578 0.333-0.198 0.635-0.417 0.906-0.656 0.115 0.0521 0.198 0.0677 0.25 0.0469 0.0521-0.0208 0.109-0.0208 0.172 0 0.0729 0.156 0.172 0.266 0.297 0.328 0.135 0.0625 0.266 0.13 0.391 0.203 0.135 0.0625 0.26 0.141 0.375 0.234 0.115 0.0938 0.203 0.219 0.266 0.375-0.0625 0.000008-0.0938 0.026-0.0937 0.0781 0.0104 0.0417 0.026 0.0886 0.0469 0.141 0.0208 0.0417 0.026 0.0886 0.0156 0.141-0.00001 0.0417-0.0365 0.0625-0.109 0.0625 0.0104 0.0521 0.0417 0.0833 0.0937 0.0938 0.0625 0.000008 0.0937 0.026 0.0937 0.0781-0.00001 0.0521-0.0156 0.0938-0.0469 0.125-0.0208 0.0313-0.0208 0.0833 0 0.156-0.208 0.135-0.443 0.266-0.703 0.391-0.25 0.125-0.516 0.26-0.797 0.406-0.271 0.135-0.557 0.286-0.859 0.453-0.292 0.156-0.578 0.339-0.859 0.547s-0.568 0.443-0.859 0.703c-0.292 0.25-0.573 0.516-0.844 0.797s-0.526 0.573-0.766 0.875c-0.24 0.292-0.443 0.583-0.609 0.875 0.0208 0.0521 0.0417 0.0938 0.0625 0.125 0.0313 0.0208 0.0573 0.0573 0.0781 0.109 0.333 0.0208 0.641 0.0208 0.922 0 0.292-0.0312 0.583-0.0156 0.875 0.0469 0.0313-0.0208 0.0521-0.0521 0.0625-0.0938s0.0365-0.0729 0.0781-0.0938c0.594-0.0625 1.15-0.156 1.66-0.281 0.51-0.135 1.03-0.276 1.56-0.422-0.0833-0.0312-0.161-0.0573-0.234-0.0781-0.0625-0.0312-0.125-0.0573-0.188-0.0781-0.0521-0.0521-0.0521-0.0938 0-0.125 0.0625-0.0417 0.115-0.0833 0.156-0.125-0.146-0.0833-0.266-0.187-0.359-0.312-0.0833-0.125-0.135-0.292-0.156-0.5 0.0625-0.0521 0.0937-0.115 0.0937-0.188-0.00001-0.0729-0.0313-0.13-0.0937-0.172-0.0417-0.0104-0.0677-0.0104-0.0781 0s-0.0208 0.026-0.0313 0.0469c0 0.0208-0.005 0.0417-0.0156 0.0625-0.0104 0.0104-0.0365 0.0052-0.0781-0.0156 0.0104-0.0937 0.0313-0.172 0.0625-0.234 0.0417-0.0625 0.0729-0.135 0.0937-0.219l1.08-0.719c0.115 0.0833 0.255 0.177 0.422 0.281 0.167 0.0938 0.339 0.193 0.516 0.297 0.187 0.0938 0.375 0.193 0.562 0.297 0.198 0.0938 0.38 0.188 0.547 0.281 0.146 0.0625 0.276 0.146 0.391 0.25s0.224 0.214 0.328 0.328l0.312 0.312c0.115 0.104 0.245 0.193 0.391 0.266-0.0208 0.135-0.0156 0.245 0.0156 0.328 0.0312 0.0833 0.0417 0.188 0.0313 0.312"/>
<path d="m153 33.3c-0.0104 0.125-0.00001 0.245 0.0313 0.359 0.0312 0.115 0.0677 0.229 0.109 0.344 0.0521 0.104 0.099 0.214 0.141 0.328 0.0417 0.115 0.0729 0.229 0.0937 0.344 0.0208 0.146 0.0208 0.307 0 0.484-0.0208 0.167-0.0573 0.333-0.109 0.5-0.0521 0.156-0.12 0.302-0.203 0.438-0.0833 0.125-0.182 0.219-0.297 0.281-0.146 0.188-0.323 0.333-0.531 0.438-0.208 0.104-0.401 0.229-0.578 0.375-0.115 0.0729-0.245 0.125-0.391 0.156-0.135 0.0312-0.276 0.0625-0.422 0.0938-0.115 0.0625-0.25 0.13-0.406 0.203-0.156 0.0625-0.318 0.125-0.484 0.188-0.167 0.0521-0.333 0.0938-0.5 0.125-0.167 0.0208-0.313 0.026-0.438 0.0156-0.313 0.115-0.62 0.188-0.922 0.219-0.292 0.0417-0.635 0.0208-1.03-0.0625-0.375 0.0521-0.724 0.0365-1.05-0.0469-0.312-0.0833-0.594-0.214-0.844-0.391-0.24-0.188-0.453-0.406-0.641-0.656-0.177-0.26-0.323-0.531-0.438-0.812-0.0833-0.594-0.0625-1.13 0.0625-1.61 0.125-0.49 0.302-0.937 0.531-1.34 0.24-0.417 0.51-0.797 0.812-1.14 0.302-0.354 0.594-0.698 0.875-1.03 0.0625 0.0208 0.109 0.0208 0.141 0 0.0417-0.0312 0.0781-0.0677 0.109-0.109 0.0313-0.0521 0.0625-0.099 0.0937-0.141 0.0417-0.0417 0.0885-0.0677 0.141-0.0781 0.0729-0.156 0.177-0.271 0.312-0.344 0.146-0.0833 0.26-0.198 0.344-0.344 0.0937-0.0208 0.172-0.0521 0.234-0.0938 0.0625-0.0417 0.12-0.0885 0.172-0.141 0.0625-0.0521 0.125-0.099 0.188-0.141 0.0625-0.0521 0.135-0.0885 0.219-0.109v-0.172c0.187-0.0833 0.323-0.177 0.406-0.281 0.0937-0.115 0.203-0.25 0.328-0.406 0.0937-0.0104 0.167-0.0156 0.219-0.0156 0.0625 0.000009 0.151-0.0104 0.266-0.0312 0.0833-0.146 0.156-0.255 0.219-0.328 0.0729-0.0729 0.177-0.151 0.312-0.234 0.125 0.0625 0.26 0.104 0.406 0.125 0.156 0.0208 0.292 0.0886 0.406 0.203 0.0104 0.104 0.0417 0.188 0.0937 0.25 0.0521 0.0521 0.109 0.104 0.172 0.156 0.0625 0.0417 0.12 0.0886 0.172 0.141 0.0625 0.0521 0.104 0.125 0.125 0.219 0.0417 0.0104 0.0677 0.0052 0.0781-0.0156 0.0208-0.0208 0.0521-0.026 0.0937-0.0156 0.0312 0.146 0.0677 0.245 0.109 0.297 0.0417 0.0417 0.0833 0.13 0.125 0.266-0.0521 0.104-0.0938 0.214-0.125 0.328-0.0208 0.104-0.0833 0.182-0.188 0.234-0.0104 0.0729 0.0104 0.115 0.0625 0.125 0.0521 0.000008 0.0833 0.026 0.0937 0.0781 0.0104 0.0938-0.005 0.161-0.0469 0.203 0.25 0.406 0.474 0.839 0.672 1.3 0.198 0.448 0.422 0.875 0.672 1.28m-1.95 1.48c0.0417-0.115 0.0937-0.208 0.156-0.281 0.0729-0.0729 0.115-0.182 0.125-0.328-0.0521-0.0833-0.0833-0.146-0.0937-0.188-0.0104-0.0521-0.0156-0.13-0.0156-0.234-0.229-0.323-0.427-0.667-0.594-1.03-0.167-0.375-0.354-0.724-0.562-1.05-0.0208 0.0417-0.0573 0.0833-0.109 0.125-0.0521 0.0417-0.109 0.0313-0.172-0.0312-0.0208 0.0833-0.0573 0.146-0.109 0.188-0.0521 0.0313-0.109 0.0469-0.172 0.0469-0.0625-0.0104-0.13-0.026-0.203-0.0469-0.0625-0.0312-0.12-0.0677-0.172-0.109-0.302 0.24-0.604 0.474-0.906 0.703s-0.573 0.495-0.812 0.797c-0.0417 0.0208-0.0677 0.0313-0.0781 0.0312-0.0104-0.0104-0.0417-0.0052-0.0937 0.0156-0.0833 0.198-0.188 0.38-0.312 0.547-0.115 0.156-0.229 0.318-0.344 0.484-0.115 0.167-0.214 0.344-0.297 0.531-0.0833 0.188-0.13 0.406-0.141 0.656 0.177 0.146 0.385 0.234 0.625 0.266 0.24 0.0312 0.484 0.0365 0.734 0.0156 0.26-0.0208 0.51-0.0521 0.75-0.0938 0.25-0.0521 0.479-0.0781 0.688-0.0781 0.438-0.104 0.812-0.24 1.12-0.406 0.312-0.177 0.641-0.354 0.984-0.531"/>
<path d="m163 33.3c-0.0104 0.125-0.00001 0.245 0.0313 0.359 0.0312 0.115 0.0677 0.229 0.109 0.344 0.0521 0.104 0.099 0.214 0.141 0.328 0.0417 0.115 0.0729 0.229 0.0937 0.344 0.0208 0.146 0.0208 0.307 0 0.484-0.0208 0.167-0.0573 0.333-0.109 0.5-0.0521 0.156-0.12 0.302-0.203 0.438-0.0833 0.125-0.182 0.219-0.297 0.281-0.146 0.188-0.323 0.333-0.531 0.438-0.208 0.104-0.401 0.229-0.578 0.375-0.115 0.0729-0.245 0.125-0.391 0.156-0.135 0.0312-0.276 0.0625-0.422 0.0938-0.115 0.0625-0.25 0.13-0.406 0.203-0.156 0.0625-0.318 0.125-0.484 0.188-0.167 0.0521-0.333 0.0938-0.5 0.125-0.167 0.0208-0.313 0.026-0.438 0.0156-0.313 0.115-0.62 0.188-0.922 0.219-0.292 0.0417-0.635 0.0208-1.03-0.0625-0.375 0.0521-0.724 0.0365-1.05-0.0469-0.312-0.0833-0.594-0.214-0.844-0.391-0.24-0.188-0.453-0.406-0.641-0.656-0.177-0.26-0.323-0.531-0.438-0.812-0.0833-0.594-0.0625-1.13 0.0625-1.61 0.125-0.49 0.302-0.937 0.531-1.34 0.24-0.417 0.51-0.797 0.812-1.14 0.302-0.354 0.594-0.698 0.875-1.03 0.0625 0.0208 0.109 0.0208 0.141 0 0.0417-0.0312 0.0781-0.0677 0.109-0.109 0.0313-0.0521 0.0625-0.099 0.0937-0.141 0.0417-0.0417 0.0885-0.0677 0.141-0.0781 0.0729-0.156 0.177-0.271 0.312-0.344 0.146-0.0833 0.26-0.198 0.344-0.344 0.0937-0.0208 0.172-0.0521 0.234-0.0938 0.0625-0.0417 0.12-0.0885 0.172-0.141 0.0625-0.0521 0.125-0.099 0.188-0.141 0.0625-0.0521 0.135-0.0885 0.219-0.109v-0.172c0.187-0.0833 0.323-0.177 0.406-0.281 0.0937-0.115 0.203-0.25 0.328-0.406 0.0937-0.0104 0.167-0.0156 0.219-0.0156 0.0625 0.000009 0.151-0.0104 0.266-0.0312 0.0833-0.146 0.156-0.255 0.219-0.328 0.0729-0.0729 0.177-0.151 0.312-0.234 0.125 0.0625 0.26 0.104 0.406 0.125 0.156 0.0208 0.292 0.0886 0.406 0.203 0.0104 0.104 0.0417 0.188 0.0937 0.25 0.0521 0.0521 0.109 0.104 0.172 0.156 0.0625 0.0417 0.12 0.0886 0.172 0.141 0.0625 0.0521 0.104 0.125 0.125 0.219 0.0417 0.0104 0.0677 0.0052 0.0781-0.0156 0.0208-0.0208 0.0521-0.026 0.0937-0.0156 0.0312 0.146 0.0677 0.245 0.109 0.297 0.0417 0.0417 0.0833 0.13 0.125 0.266-0.0521 0.104-0.0938 0.214-0.125 0.328-0.0208 0.104-0.0833 0.182-0.188 0.234-0.0104 0.0729 0.0104 0.115 0.0625 0.125 0.0521 0.000008 0.0833 0.026 0.0937 0.0781 0.0104 0.0938-0.005 0.161-0.0469 0.203 0.25 0.406 0.474 0.839 0.672 1.3 0.198 0.448 0.422 0.875 0.672 1.28m-1.95 1.48c0.0417-0.115 0.0937-0.208 0.156-0.281 0.0729-0.0729 0.115-0.182 0.125-0.328-0.0521-0.0833-0.0833-0.146-0.0937-0.188-0.0104-0.0521-0.0156-0.13-0.0156-0.234-0.229-0.323-0.427-0.667-0.594-1.03-0.167-0.375-0.354-0.724-0.562-1.05-0.0208 0.0417-0.0573 0.0833-0.109 0.125-0.0521 0.0417-0.109 0.0313-0.172-0.0312-0.0208 0.0833-0.0573 0.146-0.109 0.188-0.0521 0.0313-0.109 0.0469-0.172 0.0469-0.0625-0.0104-0.13-0.026-0.203-0.0469-0.0625-0.0312-0.12-0.0677-0.172-0.109-0.302 0.24-0.604 0.474-0.906 0.703s-0.573 0.495-0.812 0.797c-0.0417 0.0208-0.0677 0.0313-0.0781 0.0312-0.0104-0.0104-0.0417-0.0052-0.0937 0.0156-0.0833 0.198-0.188 0.38-0.312 0.547-0.115 0.156-0.229 0.318-0.344 0.484-0.115 0.167-0.214 0.344-0.297 0.531-0.0833 0.188-0.13 0.406-0.141 0.656 0.177 0.146 0.385 0.234 0.625 0.266 0.24 0.0312 0.484 0.0365 0.734 0.0156 0.26-0.0208 0.51-0.0521 0.75-0.0938 0.25-0.0521 0.479-0.0781 0.688-0.0781 0.438-0.104 0.812-0.24 1.12-0.406 0.312-0.177 0.641-0.354 0.984-0.531"/>
<path d="m172 33.8c-0.0104 0.0521-0.0208 0.099-0.0313 0.141-0.0104 0.0312-0.0208 0.0625-0.0313 0.0938-0.0104 0.0312-0.0156 0.0729-0.0156 0.125-0.00001 0.0417-0.00001 0.099 0 0.172-0.313 0.552-0.708 1.02-1.19 1.39-0.469 0.375-0.99 0.708-1.56 1-0.563 0.281-1.15 0.542-1.77 0.781-0.615 0.229-1.21 0.479-1.8 0.75-0.25-0.0625-0.443-0.167-0.578-0.312-0.125-0.146-0.224-0.312-0.297-0.5-0.0625-0.198-0.109-0.411-0.141-0.641-0.0208-0.24-0.0417-0.484-0.0625-0.734 0.0313-0.115 0.0729-0.208 0.125-0.281 0.0625-0.0833 0.0937-0.198 0.0937-0.344 0.0833-0.271 0.167-0.536 0.25-0.797 0.0833-0.26 0.135-0.526 0.156-0.797 0.0313-0.0833 0.0885-0.141 0.172-0.172 0.0521-0.5 0.0521-1.01 0-1.52-0.0417-0.521-0.125-1.01-0.25-1.45 0.0104-0.104 0.0208-0.177 0.0313-0.219 0.0208-0.0521 0.0208-0.0885 0-0.109-0.0104-0.0833 0.0156-0.125 0.0781-0.125 0.0729 0.000008 0.146 0.000008 0.219 0 0-0.156-0.0313-0.312-0.0937-0.469-0.0521-0.156-0.104-0.333-0.156-0.531 0.0729-0.156 0.12-0.307 0.141-0.453 0.0208-0.156 0.0677-0.292 0.141-0.406 0.562 0.177 1.1 0.391 1.61 0.641 0.521 0.25 1.03 0.432 1.53 0.547 0.375 0.271 0.76 0.542 1.16 0.812 0.396 0.26 0.755 0.552 1.08 0.875 0.323 0.313 0.594 0.672 0.812 1.08 0.219 0.406 0.344 0.891 0.375 1.45m-3.7 0.859c0.219-0.0833 0.432-0.172 0.641-0.266 0.219-0.0938 0.417-0.198 0.594-0.312 0.188-0.125 0.354-0.266 0.5-0.422s0.266-0.344 0.359-0.562c-0.0625-0.125-0.146-0.234-0.25-0.328-0.104-0.104-0.208-0.198-0.312-0.281l-0.312-0.281c-0.0938-0.0937-0.172-0.208-0.234-0.344-0.135-0.0208-0.255-0.0573-0.359-0.109-0.104-0.0625-0.208-0.12-0.312-0.172-0.0938-0.0625-0.198-0.12-0.312-0.172-0.104-0.0521-0.229-0.0833-0.375-0.0938-0.229-0.115-0.438-0.198-0.625-0.25-0.177-0.0521-0.313-0.12-0.406-0.203-0.0729 0.000007-0.13 0.0156-0.172 0.0469 0.104 0.396 0.182 0.771 0.234 1.12 0.0521 0.344 0.0781 0.693 0.0781 1.05 0.0104 0.344-0.005 0.698-0.0469 1.06-0.0417 0.365-0.099 0.76-0.172 1.19 0.104-0.0104 0.198-0.0312 0.281-0.0625 0.0937-0.0417 0.182-0.0833 0.266-0.125 0.0937-0.0417 0.187-0.0781 0.281-0.109 0.104-0.0417 0.224-0.0677 0.359-0.0781 0.0313-0.0625 0.0729-0.115 0.125-0.156 0.0625-0.0417 0.12-0.0885 0.172-0.141"/>
<path d="m178 31c0.0729-0.219 0.188-0.406 0.344-0.562 0.167-0.156 0.344-0.286 0.531-0.391 0.198-0.115 0.401-0.208 0.609-0.281 0.208-0.0729 0.406-0.135 0.594-0.188 0.417-0.177 0.859-0.344 1.33-0.5 0.479-0.167 0.964-0.312 1.45-0.438 0.5-0.125 1.01-0.203 1.53-0.234 0.521-0.0417 1.07 0.0208 1.64 0.188 0.0312 0.104 0.0781 0.203 0.141 0.297 0.0625 0.0938 0.125 0.188 0.188 0.281 0.0729 0.0938 0.135 0.188 0.188 0.281 0.0521 0.0833 0.0833 0.172 0.0937 0.266 0.104 0.0938 0.187 0.198 0.25 0.312 0.0625 0.104 0.0729 0.245 0.0313 0.422-0.104 0.0833-0.208 0.161-0.312 0.234-0.0938 0.0625-0.198 0.12-0.312 0.172-0.385-0.0937-0.776-0.125-1.17-0.0938-0.396 0.0313-0.75 0.0573-1.06 0.0781-0.0938-0.0937-0.208-0.141-0.344-0.141-0.125 0.000007-0.26 0.0208-0.406 0.0625-0.135 0.0417-0.276 0.0833-0.422 0.125-0.135 0.0417-0.266 0.0521-0.391 0.0312-0.104 0.0833-0.234 0.141-0.391 0.172-0.146 0.0208-0.307 0.0417-0.484 0.0625-0.0104 0.0521-0.00001 0.0886 0.0313 0.109 0.0312 0.0104 0.0365 0.0417 0.0156 0.0938 0.0625 0.0729 0.141 0.125 0.234 0.156 0.104 0.0313 0.208 0.0625 0.312 0.0938 0.115 0.0313 0.214 0.0729 0.297 0.125 0.0833 0.0417 0.141 0.115 0.172 0.219 0.156 0.000006 0.292 0.0365 0.406 0.109 0.115 0.0729 0.208 0.161 0.281 0.266 0.0729 0.104 0.125 0.219 0.156 0.344 0.0417 0.115 0.0625 0.219 0.0625 0.312 0.0312 0.0833 0.0677 0.12 0.109 0.109 0.0417-0.0104 0.0885 0.0104 0.141 0.0625 0.0312 0.135 0.109 0.276 0.234 0.422 0.125 0.135 0.224 0.286 0.297 0.453 0.0208 0.26 0.0365 0.495 0.0469 0.703 0.0104 0.198-0.0261 0.401-0.109 0.609-0.156 0.385-0.375 0.729-0.656 1.03-0.271 0.302-0.583 0.573-0.938 0.812-0.344 0.229-0.714 0.427-1.11 0.594s-0.781 0.307-1.16 0.422c-0.0417-0.0104-0.0833-0.0104-0.125 0s-0.0521-0.0156-0.0313-0.0781c-0.0833 0.0729-0.177 0.12-0.281 0.141-0.0937 0.0208-0.198 0.026-0.312 0.0156-0.115 0-0.234-0.0052-0.359-0.0156-0.115-0.0104-0.224-0.0052-0.328 0.0156-0.0729-0.0729-0.141-0.146-0.203-0.219-0.0521-0.0625-0.0937-0.146-0.125-0.25-0.0521 0-0.0781-0.026-0.0781-0.0781 0.0104-0.0521-0.005-0.0781-0.0469-0.0781 0.0625-0.104 0.0885-0.161 0.0781-0.172 0-0.0208-0.0156-0.0365-0.0469-0.0469l-0.0625-0.0312c-0.0208-0.0208-0.026-0.0469-0.0156-0.0781 0.0417-0.0833 0.0573-0.177 0.0469-0.281-0.0104-0.115-0.0208-0.229-0.0313-0.344-0.0104-0.115-0.005-0.224 0.0156-0.328 0.0313-0.104 0.109-0.187 0.234-0.25 0.354 0.0417 0.688 0.0312 1-0.0312 0.323-0.0729 0.625-0.172 0.906-0.297s0.547-0.26 0.797-0.406c0.26-0.146 0.516-0.276 0.766-0.391 0.0312-0.0938 0.0729-0.172 0.125-0.234 0.0625-0.0625 0.125-0.12 0.188-0.172 0.0625-0.0521 0.12-0.109 0.172-0.172 0.0521-0.0625 0.0885-0.141 0.109-0.234 0.0104-0.0729-0.0104-0.115-0.0625-0.125-0.0417-0.0208-0.0625-0.0625-0.0625-0.125l-0.172-0.0469c-0.198-0.115-0.422-0.208-0.672-0.281-0.25-0.0833-0.464-0.172-0.641-0.266-0.115 0.0625-0.224 0.0781-0.328 0.0469-0.0938-0.0312-0.219-0.0625-0.375-0.0938-0.354-0.0208-0.698-0.0573-1.03-0.109-0.323-0.0521-0.635-0.146-0.938-0.281-0.0208-0.0521-0.0469-0.099-0.0781-0.141-0.0313-0.0417-0.0885-0.0521-0.172-0.0312-0.0625-0.0833-0.125-0.161-0.188-0.234-0.0625-0.0833-0.12-0.172-0.172-0.266 0.0208-0.125 0.0365-0.229 0.0469-0.312 0.0104-0.0937-0.0208-0.182-0.0937-0.266 0.0417-0.135 0.0729-0.245 0.0937-0.328 0.0208-0.0833 0.0208-0.193 0-0.328"/>
<path d="m194 30.5c-0.26 0.000008-0.542 0.0208-0.844 0.0625-0.302 0.0313-0.599 0.0677-0.891 0.109-0.208 0.0313-0.411 0.0573-0.609 0.0781-0.188 0.0208-0.359 0.0365-0.516 0.0469-0.0729 0.229-0.146 0.432-0.219 0.609-0.0729 0.177-0.151 0.349-0.234 0.516-0.0833 0.177-0.161 0.359-0.234 0.547-0.0625 0.177-0.125 0.37-0.188 0.578-0.104 0.167-0.193 0.323-0.266 0.469-0.0625 0.135-0.115 0.292-0.156 0.469-0.125 0.156-0.219 0.323-0.281 0.5-0.0625 0.167-0.109 0.313-0.141 0.438l-0.0625 0.188c-0.0625 0.0625-0.099 0.115-0.109 0.156-0.0104 0.0312-0.0365 0.0625-0.0781 0.0938-0.0104 0.115-0.0469 0.229-0.109 0.344-0.0208 0.0521-0.0365 0.104-0.0469 0.156-0.0104 0.0417-0.0156 0.0729-0.0156 0.0938 0 0.104-0.026 0.172-0.0781 0.203 0.0104 0.0521 0.0104 0.109 0 0.172-0.0104 0.0521-0.0208 0.104-0.0313 0.156-0.0313 0.125-0.0417 0.224-0.0313 0.297 0.0312 0.0417 0.0573 0.0781 0.0781 0.109 0.0313 0.0312 0.0521 0.0729 0.0625 0.125 0.0625 0.0417 0.109 0.0677 0.141 0.0781 0.0417 0.0312 0.104 0.0677 0.188 0.109l0.141 0.156c0.0521 0.302 0.005 0.542-0.141 0.719-0.156 0.198-0.422 0.297-0.797 0.297h-0.188c-0.0521-0.0521-0.0833-0.0938-0.0937-0.125-0.0833-0.0312-0.151-0.0573-0.203-0.0781-0.0521-0.0208-0.099-0.0625-0.141-0.125-0.135-0.0625-0.245-0.115-0.328-0.156l-0.141-0.0781v-0.188c-0.0729-0.0938-0.13-0.198-0.172-0.312-0.0313-0.115-0.0573-0.229-0.0781-0.344-0.0208-0.0938-0.0469-0.182-0.0781-0.266-0.0208-0.0833-0.0521-0.156-0.0937-0.219-0.0208-0.604 0.0365-1.11 0.172-1.53 0.135-0.417 0.276-0.818 0.422-1.2 0.0833-0.208 0.167-0.417 0.25-0.625 0.0833-0.219 0.156-0.443 0.219-0.672l0.141-0.156c0.0729-0.167 0.13-0.302 0.172-0.406 0.0521-0.115 0.104-0.229 0.156-0.344 0.0312-0.0729 0.0573-0.141 0.0781-0.203 0.0313-0.0729 0.0573-0.135 0.0781-0.188-0.0625 0.000007-0.12 0.0052-0.172 0.0156-0.0521 0.000007-0.104 0.0052-0.156 0.0156-0.0625 0.0104-0.12 0.0208-0.172 0.0312-0.0521 0.000007-0.104 0.000007-0.156 0-0.0729 0.000007-0.125-0.0052-0.156-0.0156-0.115 0.0521-0.24 0.0781-0.375 0.0781h-0.156c-0.0313 0.000007-0.0625 0.000007-0.0937 0-0.0208-0.0104-0.0417-0.0156-0.0625-0.0156-0.104 0.000007-0.188 0.0156-0.25 0.0469-0.125 0.000007-0.245 0.000007-0.359 0h-0.156c-0.0208 0.000007-0.0469 0.0052-0.0781 0.0156-0.0313 0.000007-0.0573 0.000007-0.0781 0-0.0729 0.000007-0.151-0.0052-0.234-0.0156-0.0833-0.0208-0.172-0.0573-0.266-0.109-0.125-0.167-0.208-0.255-0.25-0.266l-0.141-0.188c-0.0104-0.0625-0.026-0.12-0.0469-0.172-0.0208-0.0625-0.0417-0.13-0.0625-0.203-0.0417-0.104-0.0833-0.214-0.125-0.328-0.0313-0.125-0.0469-0.271-0.0469-0.438 0.0104-0.0833 0.0313-0.146 0.0625-0.188 0.0313-0.0417 0.0573-0.0781 0.0781-0.109l0.0469-0.234 0.203 0.0156h0.438c0.333 0.000009 0.672-0.0104 1.02-0.0312 0.344-0.0312 0.698-0.0625 1.06-0.0938l0.625-0.0625c0.219-0.0208 0.443-0.0417 0.672-0.0625 0.0417-0.0937 0.0833-0.182 0.125-0.266l0.156-0.0781c0.188-0.0104 0.318 0.0156 0.391 0.0781 0.0833 0.0521 0.151 0.104 0.203 0.156 0.229-0.0208 0.458-0.0417 0.688-0.0625 0.24-0.0312 0.479-0.0677 0.719-0.109 0.354-0.0521 0.708-0.099 1.06-0.141 0.365-0.0417 0.714-0.0625 1.05-0.0625 0.146 0.00001 0.286 0.0052 0.422 0.0156 0.135 0.0104 0.26 0.026 0.375 0.0469l0.156 0.109c0.0312 0.0625 0.0729 0.12 0.125 0.172 0.0625 0.0521 0.125 0.104 0.188 0.156 0.125 0.115 0.25 0.25 0.375 0.406s0.172 0.385 0.141 0.688c-0.0833 0.125-0.146 0.198-0.188 0.219l-0.141 0.188-0.156-0.0156c-0.0625 0.000008-0.12 0.0104-0.172 0.0312-0.0521 0.0104-0.104 0.026-0.156 0.0469-0.0417 0.0208-0.0833 0.0417-0.125 0.0625-0.0417 0.0104-0.0885 0.0208-0.141 0.0312-0.0938 0.000008-0.172 0.000008-0.234 0-0.0521-0.0104-0.109-0.0156-0.172-0.0156"/>
<path d="m202 29.1c0.0208 0.229 0.0573 0.427 0.109 0.594 0.0521 0.167 0.109 0.328 0.172 0.484 0.0521 0.146 0.099 0.292 0.141 0.438 0.0521 0.135 0.0885 0.302 0.109 0.5-0.0833 0.271-0.146 0.521-0.188 0.75-0.0313 0.229-0.0677 0.469-0.109 0.719-0.167 0.365-0.328 0.688-0.484 0.969s-0.281 0.526-0.375 0.734c-0.0521 0.0521-0.099 0.115-0.141 0.188-0.0313 0.0625-0.0677 0.13-0.109 0.203-0.0208 0.0312-0.0469 0.0781-0.0781 0.141-0.0313 0.0625-0.0573 0.104-0.0781 0.125l-0.312-0.109-0.0625 0.391-0.219 0.0625-0.156 0.188c-0.198 0.344-0.406 0.635-0.625 0.875-0.219 0.229-0.469 0.438-0.75 0.625-0.271 0.177-0.583 0.344-0.938 0.5-0.344 0.156-0.734 0.328-1.17 0.516-0.177-0.0208-0.333-0.0312-0.469-0.0312-0.125-0.0104-0.245-0.0208-0.359-0.0312-0.198 0-0.443-0.0156-0.734-0.0469-0.0313-0.0833-0.0781-0.141-0.141-0.172-0.0625-0.0312-0.12-0.0469-0.172-0.0469-0.177-0.0833-0.312-0.203-0.406-0.359-0.0833-0.167-0.167-0.344-0.25-0.531-0.0521-0.115-0.104-0.219-0.156-0.312-0.0521-0.104-0.109-0.208-0.172-0.312l0.266-0.0781-0.344-0.375c-0.0208-0.0312-0.0469-0.0573-0.0781-0.0781-0.0313-0.0312-0.0573-0.0625-0.0781-0.0938l-0.0156-0.25c-0.0313-0.719-0.0469-1.37-0.0469-1.97 0.0104-0.604 0.0937-1.14 0.25-1.61v-0.172c0.0313-0.229 0.0625-0.417 0.0937-0.562 0.0313-0.156 0.0573-0.302 0.0781-0.438 0.0313-0.229 0.0781-0.443 0.141-0.641 0.146-0.0312 0.255-0.0885 0.328-0.172 0.0729-0.0937 0.135-0.177 0.188-0.25 0.146-0.0104 0.245 0.0104 0.297 0.0625 0.0521 0.0521 0.104 0.135 0.156 0.25 0.0521 0.0938 0.115 0.198 0.188 0.312 0.0833 0.115 0.203 0.203 0.359 0.266 0.0208 0.0833 0.0469 0.172 0.0781 0.266 0.0417 0.0833 0.0833 0.177 0.125 0.281 0.0833 0.177 0.156 0.365 0.219 0.562 0.0729 0.188 0.115 0.37 0.125 0.547-0.104 0.198-0.188 0.427-0.25 0.688-0.0521 0.26-0.0885 0.526-0.109 0.797-0.0104 0.26-0.005 0.516 0.0156 0.766 0.0313 0.24 0.0781 0.443 0.141 0.609l0.0937 0.203 0.266-0.0312c0.312-0.0833 0.594-0.172 0.844-0.266 0.26-0.104 0.5-0.224 0.719-0.359s0.427-0.292 0.625-0.469c0.198-0.187 0.406-0.401 0.625-0.641s0.406-0.51 0.562-0.812c0.167-0.312 0.302-0.635 0.406-0.969 0.115-0.333 0.198-0.661 0.25-0.984 0.0625-0.333 0.104-0.646 0.125-0.938 0.177-0.0625 0.266-0.187 0.266-0.375l-0.0313-0.172c-0.0417-0.0625-0.0417-0.135 0-0.219 0.0625-0.198 0.208-0.349 0.438-0.453 0.167 0.104 0.312 0.219 0.438 0.344 0.135 0.125 0.26 0.25 0.375 0.375"/>
<path d="m205 37.5c-0.0625 0.354-0.24 0.599-0.531 0.734-0.135 0.0104-0.24 0.0052-0.312-0.0156-0.0625-0.0208-0.13-0.0469-0.203-0.0781-0.0937-0.0417-0.177-0.0677-0.25-0.0781l-0.172-0.125c-0.0208-0.0521-0.0469-0.104-0.0781-0.156-0.0313-0.0521-0.0677-0.104-0.109-0.156-0.0833-0.104-0.167-0.234-0.25-0.391-0.0625-0.302-0.0729-0.552-0.0313-0.75 0.0417-0.208 0.0937-0.411 0.156-0.609 0.0208-0.0625 0.0417-0.125 0.0625-0.188 0.0208-0.0729 0.0417-0.141 0.0625-0.203-0.271-0.146-0.474-0.354-0.609-0.625s-0.214-0.531-0.234-0.781c0.0313-0.198 0.0885-0.354 0.172-0.469 0.0833-0.125 0.177-0.224 0.281-0.297 0.115-0.0729 0.229-0.13 0.344-0.172 0.125-0.0417 0.245-0.0781 0.359-0.109l0.203 0.0781c0.0937 0.0938 0.188 0.167 0.281 0.219 0.0729-0.0312 0.12-0.0781 0.141-0.141 0.0313-0.0729 0.0573-0.151 0.0781-0.234 0.0313-0.0937 0.0625-0.187 0.0937-0.281 0.0417-0.0937 0.0885-0.187 0.141-0.281-0.0104-0.135 0.0104-0.26 0.0625-0.375-0.0729-0.0521-0.151-0.0833-0.234-0.0938-0.0208 0.000006-0.0729-0.0104-0.156-0.0312-0.125-0.0937-0.214-0.172-0.266-0.234-0.0417-0.0729-0.0833-0.141-0.125-0.203-0.0625-0.135-0.141-0.245-0.234-0.328l-0.156-0.109 0.0781-0.156c0.0208-0.0208 0.0313-0.0469 0.0313-0.0781s-0.0208-0.0781-0.0625-0.141c-0.0208-0.115-0.0208-0.193 0-0.234l0.0313-0.156c0.0833-0.115 0.125-0.177 0.125-0.188l0.141-0.141c0.208-0.0521 0.411-0.109 0.609-0.172 0.208-0.0729 0.417-0.146 0.625-0.219 0.198-0.0625 0.396-0.125 0.594-0.188 0.208-0.0729 0.417-0.135 0.625-0.188 0.0729-0.0521 0.151-0.0833 0.234-0.0938 0.0833-0.0208 0.161-0.0364 0.234-0.0469 0.0625-0.0104 0.12-0.0156 0.172-0.0156 0.0521-0.0104 0.0885-0.0312 0.109-0.0625 0.125-0.0417 0.271-0.0885 0.438-0.141 0.26-0.0729 0.604-0.151 1.03-0.234 0.427-0.0937 0.906-0.167 1.44-0.219l0.266-0.0156c0.0521 0.0104 0.104 0.0156 0.156 0.0156 0.0521-0.0104 0.104-0.0156 0.156-0.0156 0.469 0.00001 0.766 0.141 0.891 0.422 0.0937 0.0521 0.177 0.109 0.25 0.172 0.0729 0.0625 0.141 0.125 0.203 0.188 0.0312 0.0417 0.0625 0.0781 0.0937 0.109 0.0417 0.0313 0.0729 0.0521 0.0937 0.0625 0.177 0.271 0.234 0.51 0.172 0.719-0.0938 0.135-0.214 0.214-0.359 0.234l-0.172 0.0938c-0.115-0.0104-0.203-0.0156-0.266-0.0156-0.0521 0.000008-0.109 0.000008-0.172 0-0.26 0.000008-0.563 0.0156-0.906 0.0469-0.344 0.0313-0.698 0.0781-1.06 0.141-0.354 0.0521-0.698 0.12-1.03 0.203-0.333 0.0833-0.625 0.172-0.875 0.266l-0.281 0.141c-0.0729 0.115-0.115 0.208-0.125 0.281l-0.0313 0.188c-0.0104 0.0417-0.0208 0.0833-0.0313 0.125-0.00001 0.0417-0.005 0.0886-0.0156 0.141-0.177 0.219-0.266 0.479-0.266 0.781-0.0729 0.125-0.12 0.219-0.141 0.281-0.0208 0.0521-0.0208 0.12 0 0.203 0.198 0.0833 0.385 0.115 0.562 0.0938 0.177-0.0208 0.354-0.0469 0.531-0.0781 0.24-0.0417 0.484-0.0781 0.734-0.109 0.26-0.0312 0.526-0.0469 0.797-0.0469h0.5l-0.125 0.125 0.0781 0.219c0.0625 0.0313 0.104 0.0521 0.125 0.0625 0.0312 0.0104 0.0625 0.026 0.0937 0.0469l0.0781 0.141c0.0417 0.0208 0.0781 0.0573 0.109 0.109 0.0417 0.0521 0.0677 0.13 0.0781 0.234l-0.641 0.906-0.219 0.0625c-0.177-0.0104-0.333 0.0104-0.469 0.0625-0.0729 0.0208-0.146 0.0417-0.219 0.0625-0.0729 0.0104-0.151 0.0156-0.234 0.0156-0.208 0.0417-0.385 0.0729-0.531 0.0938-0.135 0.0208-0.276 0.0417-0.422 0.0625-0.188 0.0208-0.37 0.0521-0.547 0.0938-0.177 0.0312-0.344 0.0781-0.5 0.141-0.104 0.000003-0.177 0.000003-0.219 0-0.0833 0.000003-0.172 0.0156-0.266 0.0469-0.0833 0.0208-0.161 0.0417-0.234 0.0625-0.0521 0.0417-0.0885 0.0885-0.109 0.141-0.0208 0.0417-0.0417 0.0885-0.0625 0.141-0.0417 0.146-0.099 0.266-0.172 0.359v0.234c-0.0833 0.104-0.135 0.188-0.156 0.25-0.0104 0.0521-0.026 0.104-0.0469 0.156-0.0208 0.0312-0.0365 0.0625-0.0469 0.0938-0.0104 0.0208-0.0156 0.0469-0.0156 0.0781 0.0833 0.156 0.104 0.333 0.0625 0.531"/>
<path d="m212 37.5c-0.0625 0.354-0.24 0.599-0.531 0.734-0.135 0.0104-0.24 0.0052-0.312-0.0156-0.0625-0.0208-0.13-0.0469-0.203-0.0781-0.0937-0.0417-0.177-0.0677-0.25-0.0781l-0.172-0.125c-0.0208-0.0521-0.0469-0.104-0.0781-0.156-0.0313-0.0521-0.0677-0.104-0.109-0.156-0.0833-0.104-0.167-0.234-0.25-0.391-0.0625-0.302-0.0729-0.552-0.0313-0.75 0.0417-0.208 0.0937-0.411 0.156-0.609 0.0208-0.0625 0.0417-0.125 0.0625-0.188 0.0208-0.0729 0.0417-0.141 0.0625-0.203-0.271-0.146-0.474-0.354-0.609-0.625s-0.214-0.531-0.234-0.781c0.0313-0.198 0.0885-0.354 0.172-0.469 0.0833-0.125 0.177-0.224 0.281-0.297 0.115-0.0729 0.229-0.13 0.344-0.172 0.125-0.0417 0.245-0.0781 0.359-0.109l0.203 0.0781c0.0937 0.0938 0.188 0.167 0.281 0.219 0.0729-0.0312 0.12-0.0781 0.141-0.141 0.0313-0.0729 0.0573-0.151 0.0781-0.234 0.0313-0.0937 0.0625-0.187 0.0937-0.281 0.0417-0.0937 0.0885-0.187 0.141-0.281-0.0104-0.135 0.0104-0.26 0.0625-0.375-0.0729-0.0521-0.151-0.0833-0.234-0.0938-0.0208 0.000006-0.0729-0.0104-0.156-0.0312-0.125-0.0937-0.214-0.172-0.266-0.234-0.0417-0.0729-0.0833-0.141-0.125-0.203-0.0625-0.135-0.141-0.245-0.234-0.328l-0.156-0.109 0.0781-0.156c0.0208-0.0208 0.0313-0.0469 0.0313-0.0781s-0.0208-0.0781-0.0625-0.141c-0.0208-0.115-0.0208-0.193 0-0.234l0.0313-0.156c0.0833-0.115 0.125-0.177 0.125-0.188l0.141-0.141c0.208-0.0521 0.411-0.109 0.609-0.172 0.208-0.0729 0.417-0.146 0.625-0.219 0.198-0.0625 0.396-0.125 0.594-0.188 0.208-0.0729 0.417-0.135 0.625-0.188 0.0729-0.0521 0.151-0.0833 0.234-0.0938 0.0833-0.0208 0.161-0.0364 0.234-0.0469 0.0625-0.0104 0.12-0.0156 0.172-0.0156 0.0521-0.0104 0.0885-0.0312 0.109-0.0625 0.125-0.0417 0.271-0.0885 0.438-0.141 0.26-0.0729 0.604-0.151 1.03-0.234 0.427-0.0937 0.906-0.167 1.44-0.219l0.266-0.0156c0.0521 0.0104 0.104 0.0156 0.156 0.0156 0.0521-0.0104 0.104-0.0156 0.156-0.0156 0.469 0.00001 0.766 0.141 0.891 0.422 0.0937 0.0521 0.177 0.109 0.25 0.172 0.0729 0.0625 0.141 0.125 0.203 0.188 0.0312 0.0417 0.0625 0.0781 0.0937 0.109 0.0417 0.0313 0.0729 0.0521 0.0937 0.0625 0.177 0.271 0.234 0.51 0.172 0.719-0.0938 0.135-0.214 0.214-0.359 0.234l-0.172 0.0938c-0.115-0.0104-0.203-0.0156-0.266-0.0156-0.0521 0.000008-0.109 0.000008-0.172 0-0.26 0.000008-0.563 0.0156-0.906 0.0469-0.344 0.0313-0.698 0.0781-1.06 0.141-0.354 0.0521-0.698 0.12-1.03 0.203-0.333 0.0833-0.625 0.172-0.875 0.266l-0.281 0.141c-0.0729 0.115-0.115 0.208-0.125 0.281l-0.0313 0.188c-0.0104 0.0417-0.0208 0.0833-0.0313 0.125-0.00001 0.0417-0.005 0.0886-0.0156 0.141-0.177 0.219-0.266 0.479-0.266 0.781-0.0729 0.125-0.12 0.219-0.141 0.281-0.0208 0.0521-0.0208 0.12 0 0.203 0.198 0.0833 0.385 0.115 0.562 0.0938 0.177-0.0208 0.354-0.0469 0.531-0.0781 0.24-0.0417 0.484-0.0781 0.734-0.109 0.26-0.0312 0.526-0.0469 0.797-0.0469h0.5l-0.125 0.125 0.0781 0.219c0.0625 0.0313 0.104 0.0521 0.125 0.0625 0.0312 0.0104 0.0625 0.026 0.0937 0.0469l0.0781 0.141c0.0417 0.0208 0.0781 0.0573 0.109 0.109 0.0417 0.0521 0.0677 0.13 0.0781 0.234l-0.641 0.906-0.219 0.0625c-0.177-0.0104-0.333 0.0104-0.469 0.0625-0.0729 0.0208-0.146 0.0417-0.219 0.0625-0.0729 0.0104-0.151 0.0156-0.234 0.0156-0.208 0.0417-0.385 0.0729-0.531 0.0938-0.135 0.0208-0.276 0.0417-0.422 0.0625-0.188 0.0208-0.37 0.0521-0.547 0.0938-0.177 0.0312-0.344 0.0781-0.5 0.141-0.104 0.000003-0.177 0.000003-0.219 0-0.0833 0.000003-0.172 0.0156-0.266 0.0469-0.0833 0.0208-0.161 0.0417-0.234 0.0625-0.0521 0.0417-0.0885 0.0885-0.109 0.141-0.0208 0.0417-0.0417 0.0885-0.0625 0.141-0.0417 0.146-0.099 0.266-0.172 0.359v0.234c-0.0833 0.104-0.135 0.188-0.156 0.25-0.0104 0.0521-0.026 0.104-0.0469 0.156-0.0208 0.0312-0.0365 0.0625-0.0469 0.0938-0.0104 0.0208-0.0156 0.0469-0.0156 0.0781 0.0833 0.156 0.104 0.333 0.0625 0.531"/>
</g>
</svg>
