<?xml version="1.0" encoding="UTF-8" standalone="no"?>
<!-- Created with Inkscape (http://www.inkscape.org/) -->
<svg id="svg11293" xmlns:rdf="http://www.w3.org/1999/02/22-rdf-syntax-ns#" xmlns="http://www.w3.org/2000/svg" height="82" width="80" version="1.0" xmlns:cc="http://creativecommons.org/ns#" xmlns:dc="http://purl.org/dc/elements/1.1/">
 <metadata id="metadata11298">
  <rdf:RDF>
   <cc:Work rdf:about="">
    <dc:format>image/svg+xml</dc:format>
    <dc:type rdf:resource="http://purl.org/dc/dcmitype/StillImage"/>
   </cc:Work>
  </rdf:RDF>
 </metadata>
 <defs id="defs3124">
  <style id="style3126" type="text/css">@import url(http://fonts.googleapis.com/css?family=Permanent+Marker);</style>
 </defs>
 <path id="path11381" d="m40.2 7.31c1.54 6.11 3.2 14.5 5.66 20.3 6.01 1.5 3.65-9.45 10-8.92 6.65-2.73 13.9 1.3 17.8 6.77 3.3 4.98 2.05 11.1 2.32 16.7 0.0141 9.67-3.02 20.6-12 25.6-6.73 4.16-14.5 6.1-22.1 8.07-5.46 0.52-13.4-0.986-15-5.16-1.19-3.59-3.39-14.4-8.03-11.8-2.14-1.03-6.3 9.16-3.39 13.4m15.3-64.7c1.81 9.43 0.203 7.62 4.43 16.4 2.37 8.75 10.8 11 11.2 15.8 3.2 8.96-7.56 18.9-12.2 16 0 0-3.72-5.08-7.17-5.45-3.69-0.393-8.37-0.901-10.7 2.52-6.22-1.32-16 14.4-6.62 23.1 2.04-0.802 3.97-2.51 5.78-3.72" stroke="#000" stroke-linecap="round" stroke-width="2.5" fill="none"/>
 <path id="path3015" d="m40.2 7.31c0 0.91-2.2 1.65-4.8 1.65-2.7 0-4.9-0.74-4.9-1.65s2.2-1.65 4.9-1.65c2.6 0 4.8 0.74 4.8 1.65z" stroke="#000" stroke-width="1.8" fill="none"/>
</svg>
